<?xml version="1.0" standalone="no"?>
<!DOCTYPE svg PUBLIC "-//W3C//DTD SVG 20010904//EN"
 "http://www.w3.org/TR/2001/REC-SVG-20010904/DTD/svg10.dtd">
<svg version="1.0" xmlns="http://www.w3.org/2000/svg"
 width="704.000000pt" height="704.000000pt" viewBox="0 0 704.000000 704.000000"
 preserveAspectRatio="xMidYMid meet">
<metadata>
Created by potrace 1.14, written by Peter Selinger 2001-2017
</metadata>
<g transform="translate(0.000000,704.000000) scale(0.100000,-0.100000)"
fill="#000000" stroke="none">
<path d="M4617 7034 c-1 -1 -40 -5 -87 -8 -47 -3 -95 -8 -107 -10 -12 -3 -48
-7 -80 -11 -32 -3 -78 -11 -102 -16 -24 -5 -56 -11 -70 -13 -164 -23 -530
-135 -709 -217 -35 -16 -66 -29 -69 -29 -9 0 -225 -111 -298 -153 -76 -44
-253 -155 -272 -172 -6 -5 -28 -21 -48 -35 -192 -133 -433 -355 -610 -564 -28
-32 -54 -63 -60 -70 -32 -36 -140 -184 -192 -261 -189 -285 -310 -534 -418
-860 -41 -124 -100 -348 -111 -424 -3 -20 -7 -43 -9 -51 -3 -8 -7 -33 -10 -55
-4 -22 -8 -51 -10 -65 -13 -80 -26 -230 -31 -356 l-6 -144 881 0 881 0 1 53
c1 55 2 63 13 166 14 133 55 291 111 432 34 86 56 129 126 257 42 78 167 236
261 331 250 252 555 416 905 486 120 24 201 33 301 34 l42 1 0 880 0 881 -111
-3 c-61 -2 -111 -4 -112 -4z"/>
<path d="M3959 3468 c-1 -55 -2 -64 -13 -166 -14 -128 -47 -263 -101 -407
-198 -530 -662 -944 -1209 -1080 -145 -36 -256 -51 -393 -54 l-43 -1 0 -881 0
-881 148 6 c81 4 161 8 177 10 17 2 59 7 95 11 36 4 74 9 85 11 11 2 43 7 70
10 28 4 53 8 56 10 4 2 24 6 45 10 80 11 294 67 423 110 496 165 923 418 1305
774 76 70 98 92 185 186 80 86 105 115 189 223 69 88 219 306 235 341 4 8 21
38 37 65 205 339 390 875 435 1255 3 25 8 63 11 85 11 80 13 102 19 258 l7
157 -881 0 -881 0 -1 -52z"/>
</g>
</svg>
