<svg viewBox="0 0 24 24" xmlns="http://www.w3.org/2000/svg"><path d="m4.844.904a1.007 1.007 0 0 0 -.955.692l-2.53 7.783c0 .007-.005.012-.007.02l-1.282 3.936a1.437 1.437 0 0 0 .522 1.607l11.072 8.045a.566.566 0 0 0 .67-.004l11.074-8.04a1.436 1.436 0 0 0 .522-1.61l-1.26-3.867a.547.547 0 0 0 -.031-.104l-2.526-7.775a1.004 1.004 0 0 0 -.957-.684.987.987 0 0 0 -.949.69l-2.406 7.408h-7.598l-2.41-7.408a.987.987 0 0 0 -.943-.69h-.006zm-.006 1.42 2.174 6.678h-4.338zm14.328 0 2.168 6.678h-4.342zm-10.594 7.81h6.862l-2.15 6.618-1.284 3.941-3.428-10.558zm-5.515.005h4.322l3.086 9.5zm13.568 0h4.326l-6.703 8.588-.709.914 2.959-9.108zm-14.525.623 6.978 8.947-7.818-5.682a.305.305 0 0 1 -.112-.341zm19.8 0 .952 2.922a.305.305 0 0 1 -.11.341v.002l-7.82 5.68.025-.035z"/></svg>